/* XPM */
static char *_f1ab333a9984972bf562eebfaf9805dX359pbUOq5Kh7RII[] = {
/* columns rows colors chars-per-pixel */
"48 48 196 2 ",
"   c None",
".  c black",
"X  c #0D0000",
"o  c #240000",
"O  c #280000",
"+  c #00002C",
"@  c #10002F",
"#  c #000032",
"$  c #000C32",
"%  c #000039",
"&  c #181631",
"*  c #001C39",
"=  c #27002E",
"-  c #390F20",
";  c #3E1C29",
":  c #230033",
">  c #2D1D30",
",  c #391E30",
"<  c #3C212E",
"1  c #382233",
"2  c #7B2600",
"3  c #41242F",
"4  c #4B2B2E",
"5  c #542A2D",
"6  c #4D352F",
"7  c #422431",
"8  c #4D2B32",
"9  c #522D31",
"0  c #4D3135",
"q  c #543834",
"w  c #65362C",
"e  c #723D2C",
"r  c #743A27",
"t  c #6C3B32",
"y  c #6E5A19",
"u  c #5C482E",
"i  c #5D4630",
"p  c #624C2E",
"a  c #7D422D",
"s  c #73572D",
"d  c #614B30",
"f  c #725E32",
"g  c #64512D",
"h  c #74632D",
"j  c #573F47",
"k  c #5A494F",
"l  c #534146",
"z  c #6B5F62",
"x  c #706468",
"c  c #A50000",
"v  c #BE3500",
"b  c #BE3A00",
"n  c #842924",
"m  c #C22800",
"M  c #C13100",
"N  c #9D521C",
"B  c #974D1F",
"V  c #B94900",
"C  c #AC5300",
"Z  c #AB520F",
"A  c #B55A00",
"S  c #BB5300",
"D  c #A7571A",
"F  c #AC5A1B",
"G  c #AE5A13",
"H  c #B05D1D",
"J  c #AC4816",
"K  c #897607",
"L  c #BE6300",
"P  c #BA6216",
"I  c #B5601E",
"U  c #82452C",
"Y  c #894929",
"T  c #924D28",
"R  c #864830",
"E  c #AD5D24",
"W  c #816F2D",
"Q  c #83712B",
"!  c #897535",
"~  c #C44B00",
"^  c #C34700",
"/  c #C55600",
"(  c #C25D00",
")  c #C85900",
"_  c #C56401",
"`  c #CD6200",
"'  c #C66802",
"]  c #CC6A00",
"[  c #C2670B",
"{  c #D26600",
"}  c #D27600",
"|  c #D16F1A",
" . c #C57212",
".. c #D07236",
"X. c #855E5A",
"o. c #837174",
"O. c #CB7345",
"+. c #CF7E56",
"@. c #9D8A00",
"#. c #BBA700",
"$. c #8D802A",
"%. c #97852B",
"&. c #A18F28",
"*. c #A6962B",
"=. c #A08C31",
"-. c #B8A527",
";. c #C1AC00",
":. c #DCB10E",
">. c #CCBA1E",
",. c #E1AF00",
"<. c #C3B326",
"1. c #CDBB3F",
"2. c #DFB73A",
"3. c #D6C100",
"4. c #DECA00",
"5. c #D9C71B",
"6. c #DAC81C",
"7. c #D8C61A",
"8. c #E6CE00",
"9. c #ECD600",
"0. c #EFDB00",
"q. c #F0DD01",
"w. c #F1DE0D",
"e. c #E1CE1A",
"r. c #E9CF11",
"t. c #EEDB12",
"y. c #E6D418",
"u. c #F0DD11",
"i. c #F0DD1B",
"p. c #F5E201",
"a. c #F9E501",
"s. c #F6E30E",
"d. c #F8E50C",
"f. c #FDE908",
"g. c #FEEC05",
"h. c #F4E212",
"j. c #F5E416",
"k. c #DBC823",
"l. c #F1DF3F",
"z. c #EBD123",
"x. c #F7E53D",
"c. c #F4E225",
"v. c #948974",
"b. c #B8857A",
"n. c #D18E4A",
"m. c #CD8160",
"M. c #D48A68",
"N. c #D49379",
"B. c #EBDA42",
"V. c #F2E154",
"C. c #F3E362",
"Z. c #F1E06D",
"A. c #F3E472",
"S. c #FFF070",
"D. c #948D8F",
"F. c #999297",
"G. c #A39D9F",
"H. c #A6A2A3",
"J. c #D59B86",
"K. c #D8A697",
"L. c #DFB4A5",
"P. c #D3B5B5",
"I. c #E3BBAF",
"U. c #DCD39B",
"Y. c #F7EA82",
"T. c #FBF498",
"R. c #E9CABB",
"E. c #F7EDA2",
"W. c #F6EBAA",
"Q. c #F9F1A8",
"!. c #F7EDB8",
"~. c #FAF2BA",
"^. c #FAF3B4",
"/. c #D0CECF",
"(. c #D1CFD0",
"). c #D3D0CB",
"_. c #EDD9C9",
"`. c #EBD4D4",
"'. c #EAD7DA",
"]. c #E6CAC2",
"[. c #F6EBC5",
"{. c #FBF6C7",
"}. c #F2E3D3",
"|. c #FEFBD5",
" X c #FAF4DD",
".X c #DCDBE5",
"XX c #EFDEE2",
"oX c #E8E7E7",
"OX c #E8E7E7",
"+X c #F2EDEE",
"@X c #F4E6E7",
"#X c #FBF8E8",
"$X c #FFFFF3",
"%X c #FAF7FA",
"&X c #FDFDFD",
"*X c #F5F2F2",
/* pixels */
"                                                                                                ",
"                                                                                                ",
"                                                                                                ",
"                                                                                                ",
"                                                                                                ",
"                  j l                                                                           ",
"                ; /.(.k                                                                         ",
"                O +X&Xl                                                                         ",
"                - oX+Xk                                                                         ",
"            . D.oX%X&XoXG..                     # #                                             ",
"            . F.OX&X&X*XH..                   Q =.%.h                                           ",
"                k oX+Xx                     q <.s.t.&.#                                         ",
"                X +X*X0                     : 5.g.d.*.#                                         ",
"                ; /..Xk                     Q 6.f.h.-.g                                         ",
"                  z z                   # %.y.u.u.u.u.>.u                                       ",
"                                        # *.d.s.u.u.f.e.0                                       ",
"                                        6 -.s.s.t.u.d.6.W 4                                     ",
"                                      u <.t.w.u.u.u.u.t.y.&.#                                   ",
"                                    # q e.f.u.u.u.u.t.w.d.-.# +                                 ",
"                  < q p p d d p d d 6 h 5.d.u.u.u.u.u.s.s.-.7 u d d d p d p i 7                 ",
"                  % K :.4.k.5.5.6.6.5.5.t.u.w.u.u.u.u.u.u.e.7.5.6.6.6.k.7.8.#.7                 ",
"                  . v.Q.S.a.a.j.d.d.d.s.u.t.u.u.u.u.u.u.t.s.d.d.d.d.j.a.a.T.U.;                 ",
"                  . F.&X~.q.w.w.u.u.u.u.u.u.u.u.u.u.u.u.u.u.u.u.t.w.w.q.V.#X.X;                 ",
"                  . X.K.}.|.u.9.i.u.u.u.u.u.u.u.u.u.u.u.u.u.u.u.i.q.0.T.#XR.b.3                 ",
"                  * 2 b I.@XW.C.0.q.u.u.u.u.u.u.u.u.u.u.w.t.t.u.q.i.Y.[.@XM.c 7                 ",
"                  $ a ' ) J.%X{.0.0.u.u.u.w.u.u.u.u.u.u.w.t.u.u.q.V.$X`._ ` F 7                 ",
"                    w Y V ..L.}.|.C.0.u.u.u.u.u.u.u.u.u.u.u.q.0.E. X].N.) C e                   ",
"                      # T A M I.#XZ.q.t.u.u.t.u.u.u.w.u.u.u.0.q.!.@Xm.M H w                     ",
"                        > U ( ..n.z.p.t.u.u.u.u.u.u.u.u.u.u.s.q.2.O.| G 4                       ",
"                          8 Y ^ } 8.j.t.u.u.u.u.u.u.u.u.u.u.t.j.,.^ Z e                         ",
"                            % n #.r.j.t.w.u.u.q.q.q.q.u.u.u.u.j.:.J 5                           ",
"                              % e 6.d.u.t.i.w.0.0.0.q.i.u.u.u.s.-.@                             ",
"                              $.-.t.j.q.q.0.0.Q.|.{.A.9.0.0.i.u.6.*.h                           ",
"                            # <.f.q.q.i.V.V.C. X%X%XW.l.C.l.q.0.a.u.! #                         ",
"                            # -.a.0.9.0.|.&X$XL.m.N.}.&X&XE.0.0.p.y.f #                         ",
"                          y @.4.c.Q.~.~._.XX`.M.v ~ L.'.`.[.^.~.Y.9.;.K                         ",
"                        + ! B.d.A.#X&X%XN.M ( _ [ [ _ / ^ ].&X&X[.p.x.1.=                       ",
"                        . v.#X&X#XL.J.J...` ` N t e A { ` M.K.J._.$X$X).o                       ",
"                        . x `.@X`...M / A E F w % % T I E S ^ M K.@X@XP.O                       ",
"                        * e L ' _ ' ] P a & 3       3 7 > N ] ' ' ' ] D 1                       ",
"                        $ r ( { _ B R U                   e T U A ` { C 1                       ",
"                        & t E [ D 9 # $                     $ % Y P P T ,                       ",
"                        7 8 8 9 8                               4 8 9 8 <                       ",
"                                                                                                ",
"                                                                                                ",
"                                                                                                ",
"                                                                                                ",
"                                                                                                "
};
