/* XPM */
static char *result[] = {
/* columns rows colors chars-per-pixel */
"52 48 206 2 ",
"   c #000000",
".  c #0B0000",
"X  c #050A0B",
"o  c #030508",
"O  c #130200",
"+  c #000714",
"@  c #010D17",
"#  c #010E1B",
"$  c #04121C",
"%  c #0A161D",
"&  c #0C171A",
"*  c #151B18",
"=  c #00002D",
"-  c #0B1E29",
";  c #0A1921",
":  c #131E21",
">  c #000030",
",  c #162125",
"<  c #1B2529",
"1  c #1B2524",
"2  c #172E39",
"3  c #212827",
"4  c #2A332B",
"5  c #002647",
"6  c #003049",
"7  c #1D3441",
"8  c #1F3B49",
"9  c #073756",
"0  c #00256D",
"q  c #1F4157",
"w  c #2D4753",
"e  c #2B4859",
"r  c #304C59",
"t  c #3D5358",
"y  c #195071",
"u  c #014973",
"i  c #2A546D",
"p  c #3D5D6E",
"a  c #275A77",
"s  c #315A74",
"d  c #386279",
"f  c #45626E",
"g  c #466A7B",
"h  c #47677B",
"j  c #536F7C",
"k  c #003AA6",
"l  c #0031A5",
"z  c #004A8D",
"x  c #145989",
"c  c #0E5585",
"v  c #08649C",
"b  c #19659B",
"n  c #266588",
"m  c #326586",
"M  c #236392",
"N  c #316E93",
"B  c #34759C",
"V  c #377397",
"C  c #005BAE",
"Z  c #0053AC",
"A  c #0063AF",
"S  c #1969A1",
"D  c #006AB4",
"F  c #006EBA",
"G  c #0063B1",
"H  c #0075BA",
"J  c #0772B3",
"K  c #187CBE",
"L  c #377CA6",
"P  c #486F82",
"I  c #497489",
"U  c #557987",
"Y  c #457292",
"T  c #6C7C80",
"R  c #437CA7",
"E  c #077BC2",
"W  c #2C80BA",
"Q  c #3988BC",
"!  c #4F829D",
"~  c #548197",
"^  c #6E8186",
"/  c #64878F",
"(  c #708185",
")  c #648896",
"_  c #6D959F",
"`  c #7C9094",
"'  c #778C91",
"]  c #4F86A6",
"[  c #578AA6",
"{  c #5E91A9",
"}  c #438BBD",
"|  c #4486B9",
" . c #518CB0",
".. c #5796B8",
"X. c #638FAA",
"o. c #6A97AB",
"O. c #719CA8",
"+. c #659AB4",
"@. c #77A1AB",
"#. c #6CA3BD",
"$. c #78A4B6",
"%. c #0D89C5",
"&. c #1895D1",
"*. c #1483C2",
"=. c #288BC2",
"-. c #3989C2",
";. c #3491C5",
":. c #3C94C6",
">. c #2591CA",
",. c #4089C0",
"<. c #4493C3",
"1. c #4396C8",
"2. c #4898C8",
"3. c #5B9CC6",
"4. c #549FCC",
"5. c #5399C6",
"6. c #439DD3",
"7. c #649BC7",
"8. c #55A1CD",
"9. c #5AA3CE",
"0. c #58A7D2",
"q. c #49A3D9",
"w. c #62A5CD",
"e. c #67A4CA",
"r. c #78A7CC",
"t. c #6BAED3",
"y. c #63ADD6",
"u. c #72AFD0",
"i. c #7DADD0",
"p. c #6EB2D5",
"a. c #6BB3D9",
"s. c #6EB8DB",
"d. c #74B5D6",
"f. c #79B8D6",
"g. c #77B7D9",
"h. c #76B9DA",
"j. c #79B9D9",
"k. c #6BBAE1",
"l. c #76BDE1",
"z. c #7EC0DB",
"x. c #7FC0E0",
"c. c #8BA1A6",
"v. c #8BA6AD",
"b. c #86AAB5",
"n. c #84B1BD",
"m. c #9AB0B5",
"M. c #87B8C6",
"N. c #83BDDA",
"B. c #8ABDDB",
"V. c #86B8D5",
"C. c #94BBD7",
"Z. c #91BDD9",
"A. c #A4BEC4",
"S. c #86C2DD",
"D. c #8BC4DD",
"F. c #8EC4D5",
"G. c #92C4DD",
"H. c #9BC4DD",
"J. c #91C9DD",
"K. c #97C9D7",
"L. c #A7C6CF",
"P. c #A1C6DE",
"I. c #B5D1D8",
"U. c #83C3E2",
"Y. c #8AC7E2",
"T. c #94CDE3",
"R. c #9CCDE2",
"E. c #94D1E4",
"W. c #9CD5E6",
"Q. c #9DD8E7",
"!. c #9DD6E8",
"~. c #9ED9E8",
"^. c #A3CEE2",
"/. c #A5D4E5",
"(. c #ACD4E6",
"). c #A2DBEA",
"_. c #ABDCEB",
"`. c #ADD7E9",
"'. c #BDDBE4",
"]. c #B3DDEC",
"[. c #BBDEED",
"{. c #B1D7EA",
"}. c #A2DFF0",
"|. c #AAE1EF",
" X c #B4E1EE",
".X c #BBE0EE",
"XX c #A5E1F2",
"oX c #ADECFC",
"OX c #ABE3F1",
"+X c #BBE5F1",
"@X c #BBE8F4",
"#X c #C0DDE4",
"$X c #C1E3EE",
"%X c #C3E6F1",
"&X c #C5E9F3",
"*X c #CDEEF6",
"=X c #CFEFF8",
"-X c #C4EEF9",
";X c #D0EFF7",
":X c #CFF0F8",
">X c #D1F1F8",
",X c #D9F7FD",
"<X c #DCFAFE",
"1X c #D0F0F7",
"2X c #E2FFFF",
"3X c None",
/* pixels */
"3X3X3X3X3X3X3X3X3X3X3X3X3X3X3X3X3X3X3X3X3X3X3X3X3X3X3X3X3X3X3X3X3X3X3X3X3X3X3X3X3X3X3X3X3X3X3X3X3X3X3X3X",
"3X3X3X3X3X3X3X3X3X3X3X3X3X3X3X3X3X3X3X3X3X3X3X3X3X3X3X3X3X3X3X3X3X3X3X3X3X3X3X3X3X3X3X3X3X3X3X3X3X3X3X3X",
"3X3X3X3X3X3X3X3X3X3X3X3X3X3X3X3X3X3X3X3X3X3X3X3X3X3X3X3X3X3X3X3X3X3X3X3X3X3X3X3X3X3X3X3X3X3X3X3X3X3X3X3X",
"3X3X3X3X3X3X3X3X3X3X3X3X3X3X3X3X3X3X3X3X3X3X3X3X3X3X@ @ @ $ & $ @ # + + 3X3X3X3X3X3X3X3X3X3X3X3X3X3X3X3X",
"3X3X3X3X3X3X3X3X3X3X3X3X3X3X3X3X3X3X3X3X3X3X3X3X3X3X.               .   3X3X3X3X3X3X3X3X3X3X3X3X3X3X3X3X",
"3X3X3X3X3X3X3X3X3X3X3X3X3X3X3X3X3X3X3X3X3X        u v L L  .+...W L b v 6       3X3X3X3X3X3X3X3X3X3X3X3X",
"3X3X3X3X3X3X3X3X3X3X3X3X3X3X3X3X3X3X3X3X3X    +   c E 1.2.y.U.h.2.2.K K 9   o   3X3X3X3X3X3X3X3X3X3X3X3X",
"3X3X3X3X3X3X3X3X3X3X3X3X3X3X3X3X3X3X3Xo   | Q V.J.(.%X%X%X&X&X&X%X&X%X&XP.F.<.} q   3X3X3X3X3X3X3X3X3X3X",
"3X3X3X3X3X3X3X3X3X3X3X3X3X3X3X3X3X3X3X    W >.D.XX X,X>X>X>X>X>X>X>X,X>X|.E.:.;.6   3X3X3X3X3X3X3X3X3X3X",
"3X3X3X3X3X3X3X3X3X3X3X3X3X3X3X3X3X  r +.+./.{..X%X*X>X:X1X>X>X>X1X=X;X=X&X+X{.`.$.+.g   3X3X3X3X3X3X3X3X",
"3X3X3X3X3X3X3X3X3X3X3X3X3X3X3X3X3X  2 h.x.-X,X>X>X>X:X1X:X1X>X>X>X=X=X>X>X>X<X>XY.k.P     3X3X3X3X3X3X3X",
"3X3X3X3X3X3X3X3X3X3X3X3X3X3X3X3Xf ~ o.P./.&X=X=X1X1X>X:X>X>X>X1X=X>X1X:X;X;X;X=X`.).o.M d 3X3X3X3X3X3X3X",
"3X3X3X3X3X3X3X3X3X3X3X3X3X3X3X  g k.U.=X,X1X>X>X>X=X>X:X;X>X=X1X;X>X=X>X>X;X>X;X>X,XN.&.B   ; 3X3X3X3X3X",
"3X3X3X3X3X3X3X3X3X3X3X3X3X3X3X  j T.R.*X1X=X=X1X=X>X;X>X>X:X;X>X>X:X>X=X=X>X:X:X;X,XZ.y.!   - 3X3X3X3X3X",
"3X3X3X3X3X3X3X3X3X3X3X3X3X3X3X  T ,X=X=X>X:X>X=X1X>X=X1X1X=X>X=X;X>X>X;X>X=X=X>X=X:X`.}.@.  1 3X3X3X3X3X",
"3X3X3X3X3X3X3X3X3X3X3X3X3X3X3X  ' ,X;X=X=X>X;X>X1X:X>X=X>X>X:X>X:X>X=X>X:X>X>X:X=X,X].XX@.  7 3X3X3X3X3X",
"3X3X3X3X3X3X3X3X3X3X3X3X3X  1 J._.:X=X:X>X1X:X>X=X1X;X;X1X=X1X1X>X,X=X=X>X>X>X,X;X;X*X,XH.C b   3X3X3X3X",
"3X3X3X3X3X3X3X3X3X3X3X3X3Xp U _.+X=X;X>X=X>X>X=X>X=X=X=X=X*X%X*X%X-X=X;X*X&X&X&X*X=X=X>XH.*.R   3X3X3X3X",
"3X3X3X3X3X3X3X3X3X3X3X  d h.j.1X>X:X>X=X>X=X1X>X=X:X>X>X,X@XQ.).!._.;X>X).).).).:X,X:X,X`.a.#.  3X3X3X3X",
"3X3X3X3X3X3X3X3X3X3X3X  g S.D.=X>X;X:X>X;X>X:X1X>X=X*X&X&X].T.W.T./.;X;X/.E.R.E.$X&X&X=X_.h.#.  3X3X3X3X",
"3X3X3X3X3X3X3X3X3X3X3X  ( >X1X1X>X>X=X>X=X>X1X=X,X].j.X.f R ,.} K 7.*X,X7.K ,.} Y h r.U.J.).M.  3X3X3X3X",
"3X3X3X3X3X3X3X3X3X3X3X  j ,X,X1X>X;X>X:X>X=X=X=X>X{.a.N > z D D Z | *X>X| C D G 0 > ..a.U.OXM.  3X3X3X3X",
"3X3X3X3X3X3X3X3X3X  c.#X'.1X1X:X:X>X=X>X:X>X=X=X,X{.d.D.F.^.$X[.{.$X;X>X#X$X[.[.#X'.[.%X].!.R.K._   , 3X",
"3X3X3X3X3X3X3X3X    c.<X,X>X>X:X>X;X>X=X>X;X>X=X,X`.0.!.|.&X,X,X,X,X;X;X,X2X>X,X,X,X>X,X@X).).XXO.  , 3X",
"3X3X3X3X3X3X3X  c.L.I.>X*X X.X1X=X>X:X>X=X>X:X>X1X%X`.Y.d.R.+X+X1X1X:X>XH.H.;X;X=X=X=X,X Xz.R.-Xv.  < 3X",
"3X3X3X3X3X3X3X  L.2X1X,X*XE.W.1X>X;X>X=X>X;X>X=X1X:X,XV.D d.XX_.1X=X1X>XJ D >X>X*X1X1X,X`.0.R.2Xm.  3 3X",
"3X3X3X3X3X3X^ ` I.,X&X@X.X X X1X;X>X=X>X=X>X=X>X1X1X>X/.V.Z.N.R.>X=X1X:XZ.V.>X>X*X1X&X&XR.2.Z.*Xb.  3 3X",
"3X3X    O   c.<X1X,X%XE._.>X>X>X1X:X>X=X>X:X>X;X:X:X>X1X<XH.k r.,X1X:X1X>X>X>X;X>X>X|._.u.Z 3.oXO.  , 3X",
"  X &   / @.L.:X@X X XW._.>X;X>X>X=X>X:X>X:X;X>X;X>X;X*X,XH.A i.>X1X1X1X*X=X=X=X.X.XE.J.e.F | @.U 3X3X3X",
"  X *   M.oX@X,X XE.).E._.;X>X1X;X>X>X;X=X>X>X:X>X;X;X>X<XP.l r.,X>X>X,X>X>X,X,X|.~.D.j.7.H v   3X3X3X3X",
"  X &   o.M.K.+X_.W._._.+X>X>X=X=X>X:X>X>X=X>X;X>X;X>X[.(.C.5.V.&X%X@X%X.X].].].E.E.f.p.5.H S O 3X3X3X3X",
"3X3X3X3X    I l.T.). X,X>X>X:X>X1X=X>X;X>X;X:X>X=X;X,Xr.k u.|.!.Q.!.).~.j.p.d.d.d.f.8.1.-.E S   3X3X3X3X",
"3X3X3X3X2   U d.D.~. X>X;X>X=X>X>X=X>X1X:X:X1X:X1X*X*Xi.A d.)./.W.!.!.!.j.f.j.d.j.j.4.<.Q J b   3X3X3X3X",
"3X3X3X3X3X3X3X  n.XX.X>X>X>X>X=X:X>X=X>X1X>X1X1X,X`.d.9.;.f._.E.d.d.d.f.g.f.j.j.j.j.<.E x   # 3X3X3X3X3X",
"3X3X3X3X3X3X3X  n.}._.>X=X:X:X>X:X;X>X>X=X1X=X=X>X`.a.w.;.f.|.E.d.j.f.h.j.g.j.j.d.j.} H x   $ 3X3X3X3X3X",
"3X3X3X3X3X3X3X  ] 8.R.>X=X=X>X;X=X>X*X_._._._.).|.D.1.p.d.d.S.j.j.d.j.f.f.g.j.d.9.8.m 5 9 3X3X3X3X3X3X3X",
"3X3X3X3X3X3X3X  L &.T.,X>X>X>X>X:X,X*X!.W.!.!.!.).S.W a.z.d.d.d.j.f.f.g.j.d.j.g.4.6.a     3X3X3X3X3X3X3X",
"3X3X3X3X3X3X3X3Xs a X.B.G. X X X X X_.).).).).B.t.d.p.d.d.d.j.j.f.h.h.f.j.f.j.f.Y a i 3X3X3X3X3X3X3X3X3X",
"3X3X3X3X3X3X3X3X    n %.9.).!.!.W.W.W.!.).!.).u.*.9.j.j.j.d.j.f.j.g.j.j.g.f.j.d.w   3X3X3X3X3X3X3X3X3X3X",
"3X3X3X3X3X3X3X3X3X3X3Xw w t f f.D.).~./.).3.-.w.d.d.j.j.j.h.j.j.g.f.d.j.9.<.r w 3X3X3X3X3X3X3X3X3X3X3X3X",
"3X3X3X3X3X3X3X3X3X3X3X      - h.Y.}.}.).).,.C w.j.f.f.j.l.l.x.j.j.j.l.l.0.:.    3X3X3X3X3X3X3X3X3X3X3X3X",
"3X3X3X3X3X3X3X3X3X3X3X3X3X3X3XP U / ) e.w.w.w.u.j.t.9.[ P I P ] y.3.I P m a 3X3X3X3X3X3X3X3X3X3X3X3X3X3X",
"3X3X3X3X3X3X3X3X3X3X3X3X3X3X3X        D F g.U.l.S.a.6.y       9 q.}         3X3X3X3X3X3X3X3X3X3X3X3X3X3X",
"3X3X3X3X3X3X3X3X3X3X3X3X3X3X3X2 7 4 e M M [ { [ { ] B s * 7 * i L V 8 < 2 3X3X3X3X3X3X3X3X3X3X3X3X3X3X3X",
"3X3X3X3X3X3X3X3X3X3X3X3X3X3X3X3X3X3X3X                3X3X3X3X3X    3X3X3X3X3X3X3X3X3X3X3X3X3X3X3X3X3X3X",
"3X3X3X3X3X3X3X3X3X3X3X3X3X3X3X3X3X3X3X# $ % ; % ; % $ 3X3X3X3X3X% $ 3X3X3X3X3X3X3X3X3X3X3X3X3X3X3X3X3X3X",
"3X3X3X3X3X3X3X3X3X3X3X3X3X3X3X3X3X3X3X3X3X3X3X3X3X3X3X3X3X3X3X3X3X3X3X3X3X3X3X3X3X3X3X3X3X3X3X3X3X3X3X3X",
"3X3X3X3X3X3X3X3X3X3X3X3X3X3X3X3X3X3X3X3X3X3X3X3X3X3X3X3X3X3X3X3X3X3X3X3X3X3X3X3X3X3X3X3X3X3X3X3X3X3X3X3X"
};
