/* XPM */
static char *_79cbcb51beb4e76d3a3938ee2ad98e6jHu19JmGaZutkAcL[] = {
/* columns rows colors chars-per-pixel */
"35 36 173 2 ",
"   c None",
".  c #000000",
"X  c #030E00",
"o  c #021200",
"O  c #001E00",
"+  c #151200",
"@  c #1E1C00",
"#  c #291D00",
"$  c #0A2601",
"%  c #142900",
"&  c #0D3802",
"*  c #2A2800",
"=  c #302004",
"-  c #263700",
";  c #243D00",
":  c #2A3F01",
">  c #3B3618",
",  c #3C3924",
"<  c #533217",
"1  c #6A2C05",
"2  c #652D07",
"3  c #7E2F03",
"4  c #673909",
"5  c #7B3106",
"6  c #7C310B",
"7  c #753415",
"8  c #7B3311",
"9  c #743719",
"0  c #77391A",
"q  c #6F3717",
"w  c #004501",
"e  c #074C02",
"r  c #1D4500",
"t  c #075F01",
"y  c #0C5C01",
"u  c #005502",
"i  c #254C01",
"p  c #225200",
"a  c #395803",
"s  c #006300",
"d  c #0E6001",
"f  c #006A01",
"g  c #146001",
"h  c #176B03",
"j  c #007502",
"k  c #037E05",
"l  c #0F7D05",
"z  c #356B09",
"x  c #33403F",
"c  c #484604",
"v  c #50560B",
"b  c #644D0C",
"n  c #634E06",
"m  c #7D470F",
"M  c #764D13",
"N  c #53482F",
"B  c #444334",
"V  c #4A493C",
"C  c #4B4334",
"Z  c #4D4A42",
"A  c #535145",
"S  c #705744",
"D  c #577A54",
"F  c #7E6B5F",
"G  c #7B6352",
"H  c #647A57",
"J  c #707955",
"K  c #696953",
"L  c #74726C",
"P  c #871E15",
"I  c #802F0B",
"U  c #842909",
"Y  c #80300B",
"T  c #942F1E",
"R  c #853314",
"E  c #823A16",
"W  c #88351B",
"Q  c #983713",
"!  c #9D3813",
"~  c #94341B",
"^  c #9B361B",
"/  c #94371B",
"(  c #AC2E1C",
")  c #A5351B",
"_  c #AD391F",
"`  c #B43A1E",
"'  c #BC3F1F",
"]  c #B6371E",
"[  c #BA3D20",
"{  c #B03D23",
"}  c #C4390C",
"|  c #C83B0F",
" . c #C23C12",
".. c #8C5A01",
"X. c #834516",
"o. c #815114",
"O. c #AF431E",
"+. c #9F492B",
"@. c #A3452D",
"#. c #A84229",
"$. c #A4693F",
"%. c #CC451C",
"&. c #C1441B",
"*. c #D0471F",
"=. c #D0481A",
"-. c #F44500",
";. c #F64A00",
":. c #F94E0D",
">. c #F54F19",
",. c #F84A18",
"<. c #EF501D",
"1. c #FA501A",
"2. c #D24723",
"3. c #D4492E",
"4. c #FB4F24",
"5. c #EC562B",
"6. c #F35223",
"7. c #F6522A",
"8. c #FC5321",
"9. c #EF5A33",
"0. c #E65930",
"q. c #F05930",
"w. c #F25E38",
"e. c #F3633E",
"r. c #91724E",
"t. c #9B7145",
"y. c #846C59",
"u. c #886E5B",
"i. c #817754",
"p. c #A0724D",
"a. c #8D7462",
"s. c #F35C43",
"d. c #EE6041",
"f. c #F06549",
"g. c #038507",
"h. c #008807",
"j. c #098507",
"k. c #138607",
"l. c #148B09",
"z. c #009108",
"x. c #718055",
"c. c #8E884E",
"v. c #9D8C64",
"b. c #888A87",
"n. c #8F8F89",
"m. c #8D9C83",
"M. c #9E9B86",
"N. c #A29E9C",
"B. c #ABA8A7",
"V. c #ADACAB",
"C. c #A1A0A0",
"Z. c #B6B9B6",
"A. c #BABBB0",
"S. c #C19A87",
"D. c #CCB49D",
"F. c #EEA68B",
"G. c #E7B095",
"H. c #ECB599",
"J. c #C6C7BF",
"K. c #CCCCCC",
"L. c #C6C6C0",
"P. c #D3D1CA",
"I. c #DBDFDA",
"U. c #DAD9D3",
"Y. c #F0DCDA",
"T. c #E3E0DC",
"R. c #E9E8E6",
"E. c #F8EBE8",
"W. c #F2EEEC",
"Q. c #ECF0EE",
"!. c #F3F4F2",
"~. c #F7FBFC",
"^. c #FDFCFD",
/* pixels */
"                                                                      ",
"                                                                      ",
"                                                                      ",
"                                                                      ",
"                                                                      ",
"                                                                      ",
"                                % & w                                 ",
"                        -       o X O       -                         ",
"                      r p i   & e u e %   r p i                       ",
"                    ; g f d i - l z.l ; i y f d ;                     ",
"                  ; t k h.g.k.g l z.k g k.j.h.k y ;                   ",
"                r t j.k.l.g.f w t h t w f g.l.l.j.t r                 ",
"                c M j j j z X.W a t a W X.z j j k o.c                 ",
"              4 E ) b n n m ( ) M v M ) ( M n n b ) 8 4               ",
"            Y ) { ` ` #.@.@.+.{ ] ] ] { +.+.@.#.[ _ _ ) 6             ",
"          5 ^ ) ' 6.7.p.H J i.s.7.<.7.s.c.J H p.7.6.[ ) ^ 9           ",
"          9 ~ %.6.5...U.!.Q.Q.t.c.v.u.r.Q.W.!.U...5.6.*.~ 6           ",
"          6 ~ 3.4.d.P.Z.B.V.V.I.v.z m.I.V.V.V.Z.P.d.:.2.~ E           ",
"          8 ~ 3.,.f.^.b.. . @ K.L.A.L.K.# . . b.^.f.;.2./ E           ",
"          7 ~ 2.;.f.E.n.+ Z B . K.~.K.. B V + n.E.f.;.2.~ 6           ",
"          6 ~ 2.>.q.H.u.$ , , Z > # > C , , O y.H.9.>.2./ 9           ",
"          0 ~ *.>.q.H.u.% , B M.K * K C.B , $ u.H.9.1.2.~ 6           ",
"          6 ^ 2.>.9.H.y.o * Z T.L . L R.Z = . y.H.q.>.2.^ 8           ",
"          U R %.1.9.H.G . . , ~.K.C.K.^.x . . G H.9.>.2.R 0           ",
"            2 &.>.9.F.a.A S F Y.W.Q.W.Y.F S A a.F.q.>.&.2             ",
"            9 W ' 6.-.S.D.H.H.6.$.D $.6.H.H.D.S.-.6.[ W 9             ",
"              6 ! ' 6.q.e.e.e.6.5.0.5.6.e.e.e.q.6.' ! 6               ",
"                Y Q O.' } } } 6.8.1.8.6.} } } ' O.Q 6                 ",
"                  6 < W ^ T / =.=.%.=.%./ / / W < 5                   ",
"                      5 U P q 1 1 1 1 1 3 9 7 3                       ",
"                                                                      ",
"                                                                      ",
"                                                                      ",
"                                                                      ",
"                                                                      ",
"                                                                      "
};
