/* XPM */
static char *de31044cde254321f5c29df913f18cb8bIpb2U7bKUWnsVNi[] = {
/* columns rows colors chars-per-pixel */
"47 48 212 2 ",
"   c None",
".  c #020101",
"X  c #0F0000",
"o  c #080808",
"O  c #140404",
"+  c #3D0001",
"@  c #360505",
"#  c #230F18",
"$  c #07231C",
"%  c #3D1521",
"&  c #353535",
"*  c #322728",
"=  c #430404",
"-  c #4C0505",
";  c #550100",
":  c #5E0000",
">  c #550F00",
",  c #541301",
"<  c #591518",
"1  c #4B1608",
"2  c #5B1926",
"3  c #781226",
"4  c #44242E",
"5  c #552D3A",
"6  c #5C2223",
"7  c #612C2E",
"8  c #7C2D3A",
"9  c #553144",
"0  c #79264A",
"q  c #653342",
"w  c #723F55",
"e  c #71334C",
"r  c #434345",
"t  c #4E5151",
"y  c gray35",
"u  c #675050",
"i  c #774C67",
"p  c #5E6966",
"a  c #6B6C6C",
"s  c #72696A",
"d  c #766F70",
"f  c #767475",
"g  c #7C7C7C",
"h  c #9D0214",
"j  c #9C101F",
"k  c #A90303",
"l  c #B30000",
"z  c #AA0419",
"x  c #B20014",
"c  c #A8140F",
"v  c #94112F",
"b  c #A70324",
"n  c #B5022A",
"m  c #B50426",
"M  c #A4152B",
"N  c #A41A2E",
"B  c #AB1420",
"V  c #A50833",
"C  c #B30035",
"Z  c #9D323E",
"A  c #982526",
"S  c #A8212D",
"D  c #CC0000",
"F  c #BB1849",
"G  c #883A4E",
"H  c #933B54",
"J  c #9B3D56",
"K  c #8E3049",
"L  c #B72A48",
"P  c #A63855",
"I  c #BA3B5B",
"U  c #B13956",
"Y  c #CE004D",
"T  c #C70448",
"R  c #D2004F",
"E  c #C1174F",
"W  c #C11B4D",
"Q  c #D40152",
"!  c #D30B53",
"~  c #C01950",
"^  c #D01956",
"/  c #C12C4E",
"(  c #D3255B",
")  c #C23858",
"_  c #D3355C",
"`  c #C52154",
"'  c #D80667",
"]  c #DB1469",
"[  c #FB007A",
"{  c #F60575",
"}  c #EC1374",
"|  c #E61974",
" . c #F3157B",
".. c #F6197D",
"X. c #F8177F",
"o. c #C7286C",
"O. c #C63E61",
"+. c #D63663",
"@. c #DB3B67",
"#. c #DE2475",
"$. c #EA2B72",
"%. c #9B415D",
"&. c #8A4054",
"*. c #AF565C",
"=. c #824F6F",
"-. c #944766",
";. c #87516F",
":. c #885374",
">. c #9A5773",
",. c #A24C6C",
"<. c #AF4C6E",
"1. c #A95878",
"2. c #BA567A",
"3. c #AD4B6E",
"4. c #8B7579",
"5. c #C5476A",
"6. c #DB446C",
"7. c #D34167",
"8. c #CC4C72",
"9. c #DB4B73",
"0. c #DA4D77",
"q. c #DD547D",
"w. c #D2557D",
"e. c #CB597D",
"r. c #E34C75",
"t. c #E4517D",
"y. c #DD637B",
"u. c #F90E80",
"i. c #FB1782",
"p. c #FA1A82",
"a. c #F71D80",
"s. c #F72882",
"d. c #BD5E81",
"f. c #B16689",
"g. c #AB6E96",
"h. c #B36E95",
"j. c #D95B85",
"k. c #E25B85",
"l. c #E45E8A",
"z. c #CA638A",
"x. c #DD608B",
"c. c #D76A95",
"v. c #D5719B",
"b. c #C26A91",
"n. c #EB6393",
"m. c #E46995",
"M. c #EC6897",
"N. c #E36C99",
"B. c #ED6C9B",
"V. c #E46593",
"C. c #F26C9C",
"Z. c #F96C9D",
"A. c #C77DAA",
"S. c #DB7BA6",
"D. c #F16FA0",
"F. c #FA6EAE",
"G. c #E576A5",
"H. c #E77AAA",
"J. c #EA7EAE",
"K. c #E676A7",
"L. c #F273A3",
"P. c #FB74A5",
"I. c #F870AE",
"U. c #F37CAC",
"Y. c #F77AAB",
"T. c #F579B1",
"R. c gray59",
"E. c gray54",
"W. c #A99296",
"Q. c #A4A3A4",
"!. c #ACAAAA",
"~. c #B1AFAF",
"^. c #BCBCBC",
"/. c #CE84B2",
"(. c #DB8CBC",
"). c #D889BB",
"_. c #F481AF",
"`. c #ED8ABC",
"'. c #E784B4",
"]. c #F383B4",
"[. c #F386B9",
"{. c #F58ABD",
"}. c #F88DBD",
"|. c #F885B8",
" X c #F890BF",
".X c #EE8EC1",
"XX c #F48DC1",
"oX c #F98FC0",
"OX c #EC92C6",
"+X c #E693C7",
"@X c #F591C5",
"#X c #F993C3",
"$X c #F595CA",
"%X c #F997CA",
"&X c #FA98CC",
"*X c #F69EC6",
"=X c #F69ED6",
"-X c #F89ED6",
";X c #FC9ED9",
":X c #F8A0D7",
">X c #F7A1D9",
",X c #F9A2DA",
"<X c #F7B2DC",
"1X c #F3A6CB",
"2X c #FEA6E0",
"3X c #FEABE5",
"4X c #E0D6D8",
"5X c #E1DFE0",
"6X c #F4D8E8",
"7X c #F7D8F6",
"8X c #F7F5F4",
"9X c #FEFFFF",
/* pixels */
"                                                                                              ",
"                                                                                              ",
"                                                                                              ",
"                                                                                              ",
"                                                                                              ",
"                                                                                              ",
"                                                                                              ",
"                                      o o o o o o o o o                                       ",
"                                  # 4 8 Z H H J G 8 5 o                                       ",
"                            o o o . @ k b @.@.6._ l : o o o o o                               ",
"                            . G %.,.1.v.v.G.G.G.N.v.2.,.J J q o                               ",
"                        o o . L r.Z.U.2X,X>X,X,X,X3X[.Z.t.+.3 . o o                           ",
"                      a . >.f.v.J.[.XX>X-X-X-X:X=X=XXX`.J.H.b.f.w +                           ",
"                    o # . S.&X;X,X,X>X>X-X-X:X:X;X=X>X2X,X2X&X&X>.; o t                       ",
"                    o 2.m..X-X=X;X:X:X,XOX<.8.j.G.,Xv.L m.Y.@X>XK.m.0 p                       ",
"                  ~.o z.P.$X,X>X:X:X>X,X+Xc L +.j.2Xz.k j.C.$X,X].P.0 p                       ",
"                & 9 . /.;X=X:X:X:X>X:X-X<X8X4X: 1.-X6X8XW.: `.,X=X=X2.A r                     ",
"              Q.o * . /.,X:X:X;X>X:X-X-X<X9X5XX >.;X6X9XW.. (.2X:X>Xe.k . a                   ",
"            * & . 2.B.XX,X>X:X>X,X-X-X,X+X*.*.. ;.2XH.y.G . ).2X:X:Xx.) . f                   ",
"            o 4 . z.P.@X>X>X:X;X>X>X-X,X+Xx V . =.2Xc.@.K . (.,X:X,XM.5.. a                   ",
"            o U _ '.,X$X}.&X>X>X-X,X=X,X$X6.5.. :.,XT.D.-.. ).2X:X:X%XS.. $ o g               ",
"            o <.r.`.,X$X}.-X>X>X-X-X=X=XOX0.8.. :.2X[.P.-.. ).;X=X:X&X'.5 9 . f               ",
"        . * o A.,X=X,X,X:X>X=X>X&X[ [ [ s.D.j.. i ,X=X;X:.. ' [ Y.#X-X=XXXS.O 1 o Q.          ",
"        . 9 h.+X,X:X:X>X=X:X:X:X-XF.I.I.I.XX`.g./.>X-X2X/.g.K.F.XX&X$X$X#X`.h.f.o R.          ",
"        . i 3X,X>X>X>X>X,X,X;X:X,X,X,X,X,X,X,X2X,X=X,X,X2X2X,X2X>X>X@X X X%X3X+X. !.          ",
"        . w [.&X,X$X&X@X{.%X%X-X>X>X,X;X>X-X>X-X=X>X`.H.$X>X=X>X:X:X@X}._.].}./.. !.          ",
"        . e C.$X2X$XXXU.n.[.#X-X,X>X>X:X>X>X>X-X>X,Xm.D `.,X>X>X:X:X&X}.B.D.P.x.o Q.          ",
"        . q 8.G.XX].U.L.B.U._.#X&X:X;X>X-X>X-X>X;X>XOXJ.$X>X=X;X:X:X_.N.l.j.2.,.o ^.          ",
"        . @ k j.P.P.P.D.L.D.B.|.%X>X>X>X>X>X-X>X>X-X,X2X,X>X-X>X,X2Xx.+.r.) + = o E.          ",
"            3 %.,.3.3.j.k.M.D.U.].$X&X:X-X=X>X-X-X>X-X=X>X>X;X>XXX[.w.L P K + s               ",
"            o o . . . U 6.M.L.C.L. X%X>X,X,X,X>X,X,X>X>X,X>X>X,XU.C.) z > - o a               ",
"                o v C ` _ 0.k.B.L.U.].].[.[.{.%X$X&X%X&X}.[.[.{.V.k.) j O y                   ",
"                O <.r.( Q @.6.n.D.C.C.C.C.M.L.}.[.}.}.}.U.M.M.M.r.@.` V = 4.                  ",
"            o o.{ *X7X_.{ ......$.9.j.D.L.D.D.L.L.L.L.L.L.L.5.S $.p.....a.#.o f               ",
"            o o.[ *X7XY.{ s.X.X...7.9.B.C.D.C.D.L.C.B.B.B.B.O.b | i...a.p.| . d               ",
"        . 2 B ] i.p.s.X.X.p.i.p...Y ( 9.q.D.L.L.L.L.j.9.L m T Y  .i...i.p.| , 7 o g           ",
"        . < z ] .. .{  . . . . .} Q ^ 7.9.N.N.N.m.M.q.7.L k T Y }  . . . .] > 6 . g           ",
"        o - m T Q Q ! Q Q Q R Q Q Q Y n b . . . ; n n n n n Y Q Q R Q Y m b < < . f           ",
"          4.S F ~ F ~ ~ E ~ E ~ ~ ~ F M Z         V N N N M F E E F E F M v < u y R.          ",
"                                                                        . . .                 ",
"                                                                                              ",
"                                                                                              ",
"                                                                                              ",
"                                                                                              ",
"                                                                                              ",
"                                                                                              ",
"                                                                                              ",
"                                                                                              "
};
