/* XPM */
static char *result[] = {
/* columns rows colors chars-per-pixel */
"50 50 40 1 ",
"  c #040B15",
". c #090B15",
"X c #040C19",
"o c #090D19",
"O c #041114",
"+ c #071219",
"@ c #0C121B",
"# c #13141C",
"$ c #13181F",
"% c #19191E",
"& c #0D1422",
"* c #101624",
"= c #131A24",
"- c #1C1B22",
"; c #141B2D",
": c #181E2B",
"> c #171B32",
", c #231E23",
"< c #1C232B",
"1 c #1A2136",
"2 c #1F2138",
"3 c #232024",
"4 c #23242B",
"5 c #2B2429",
"6 c #232733",
"7 c #22233E",
"8 c #3C2E31",
"9 c #2A313A",
"0 c #433336",
"q c #473837",
"w c #483A3A",
"e c #272D46",
"r c #2B3049",
"t c #323A57",
"y c #323258",
"u c #36385D",
"i c #444A70",
"p c #5D6168",
"a c #7981BE",
"s c #8F97DF",
/* pixels */
"   OO o1;X   X=&   X   oo.  . .              XX   ",
" .    X@X   Xo2&                   X            . ",
"    XX      ..oX                .              XX.",
"    .  X    ..          . X   .   X             X ",
"  X   o            .       .             .      .o",
"   .. O                   . ..       .  . .     .X",
"    .          .     .  X.        . ..        .-..",
"  XXX                .. @71           .       o-Xo",
"       XX               ouy .      ..       O . X ",
"       XX   .  .        +@&X XX OO,% .          X ",
"X                       X    X   ,8%        ..    ",
"                    X            %%     O   .     ",
"   X  X   .   .      X X               O          ",
"  ..             .,%      . X      OO          .oo",
"  .X         .  X#w8         .X   %#    O     X @:",
"  ..   X  .  .   *4#     Xo       %.            oo",
"     .  X        ;>X X                    .     X ",
"      X          o..    .               . ..o+o   ",
"                  X      .                  &6+   ",
"         X        X    .                  O @=+ . ",
"      X    X      o      ooo              OO  X   ",
" X X                     #5o  o         OO#       ",
" X          .        O   @$              <<O      ",
"               *6@     O OX           .  .@..     ",
"XX    X        9p%                                ",
"             . &:.      . O  .                    ",
"       X        .         o    O           .      ",
" X        X    Xo                       .         ",
"   X  X          O .                    **XX      ",
"          .      .            .      ...@@o  . .  ",
"  X   .        .              .       O   .o.  .  ",
"   .                          .        o .  .     ",
"   .              X   .     .          @:       O ",
"                       ..         . O. @@        X",
"                X   Ooo.             30@O  .      ",
"                X      .             5w#          ",
" . .          .                    X.::           ",
"                                  #,@o+           ",
"                                 .55@           o@",
"                     .        X  o,o..          ;i",
"o        .    .         .       ..           .  ts",
" O   ..   . .      X    X       .X    ..   ..   ra",
" X    .              .                 .       .@e",
"   O  O                         X               . ",
"    o ,q@X                .          .    .       ",
"      ,8@    O                 O.       XX .      ",
"         X                    X  .     .oo    .   ",
"   .    .     X         .X  o          .@o        ",
"X  X      XX            o                         ",
". X   . XO    OO  ..      .   oo      O          O"
};
