/* XPM */
static char *result[] = {
/* columns rows colors chars-per-pixel */
"48 45 164 2 ",
"   c #000000",
".  c #19000B",
"X  c #000032",
"o  c #000C32",
"O  c #190034",
"+  c #011334",
"@  c #0D1231",
"#  c #171631",
"$  c #2B1C2F",
"%  c #210030",
"&  c #2E0030",
"*  c #310032",
"=  c #251932",
"-  c #281B31",
";  c #391531",
":  c #3C222F",
">  c #2A2035",
",  c #41002D",
"<  c #462A2D",
"1  c #5A2F2C",
"2  c #4E362F",
"3  c #4F2C32",
"4  c #5B3133",
"5  c #543A32",
"6  c #6E2429",
"7  c #64362D",
"8  c #6E3A2E",
"9  c #713C2D",
"0  c #713725",
"q  c #736014",
"w  c #7C432E",
"e  c #66532C",
"r  c #79682A",
"t  c #7F696C",
"y  c #910500",
"u  c #BD2100",
"i  c #BC3300",
"p  c #C02300",
"a  c #C43F00",
"s  c #A04C00",
"d  c #AD4B05",
"f  c #AF5600",
"g  c #B05500",
"h  c #BE5500",
"j  c #BA5800",
"k  c #A95611",
"l  c #B25C15",
"z  c #B05917",
"x  c #B96000",
"c  c #BF650E",
"v  c #B4601B",
"b  c #81452D",
"n  c #884828",
"m  c #964E22",
"M  c #9A512B",
"N  c #A65824",
"B  c #84722C",
"V  c #8D7B2A",
"C  c #B36023",
"Z  c #C04200",
"A  c #C84A00",
"S  c #C34C00",
"D  c #C65A00",
"F  c #CA5D00",
"G  c #C35500",
"H  c #C76400",
"J  c #C76904",
"K  c #CC6A00",
"L  c #C8690D",
"P  c #D06B00",
"I  c #D36100",
"U  c #CC6D13",
"Y  c #8D7B53",
"T  c #887F7E",
"R  c #A67F7C",
"E  c #CD7948",
"W  c #D17C4E",
"Q  c #978300",
"!  c #AE9B00",
"~  c #B19E1F",
"^  c #96842D",
"/  c #988828",
"(  c #A49326",
")  c #A99827",
"_  c #A59230",
"`  c #B8A722",
"'  c #B8A629",
"]  c #C3AF00",
"[  c #DEB200",
"{  c #DDB410",
"}  c #E4B500",
"|  c #C3AC23",
" . c #CDBA24",
".. c #D7C51E",
"X. c #E5CF00",
"o. c #EBD600",
"O. c #EEDA00",
"+. c #F0DD00",
"@. c #F0DD0B",
"#. c #E0CD1B",
"$. c #E7D416",
"%. c #E9D614",
"&. c #EEDB12",
"*. c #E7D41D",
"=. c #F0DD11",
"-. c #F0DD19",
";. c #F6E200",
":. c #F8E400",
">. c #F6E30E",
",. c #F9E60B",
"<. c #FCE909",
"1. c #FEEB07",
"2. c #F3E215",
"3. c #D5C321",
"4. c #F0DD20",
"5. c #F1DF30",
"6. c #F1E03C",
"7. c #CE8258",
"8. c #D18053",
"9. c #D68D73",
"0. c #F4E344",
"q. c #F2E25D",
"w. c #FEEE6F",
"e. c #F3E569",
"r. c #D79E8C",
"t. c #D6A08F",
"y. c #D9A694",
"u. c #C2B994",
"i. c #DDB19F",
"p. c #DDB4A1",
"a. c #E1BBAF",
"s. c #E1BCBA",
"d. c #EDD893",
"f. c #EEE185",
"g. c #F5E88A",
"h. c #FFF68D",
"j. c #F5E89A",
"k. c #E7CABB",
"l. c #F8EDA8",
"z. c #F9F0AC",
"x. c #FBF5B9",
"c. c #C1BDC6",
"v. c #DBC5C4",
"b. c #EACECD",
"n. c #E5C7C5",
"m. c #ECD7C3",
"M. c #E9CFD3",
"N. c #ECD6D6",
"B. c #F4DEDE",
"V. c #F4E8C9",
"C. c #FDFACB",
"Z. c #FBF6CA",
"A. c #F7ECD9",
"S. c #F6ECD7",
"D. c #FCF8D4",
"F. c #EFEFE8",
"G. c #EFF0E8",
"H. c #FBF6ED",
"J. c #F4E9F1",
"K. c #FAF5F3",
"L. c #FFFFF1",
"P. c #FFFFFE",
"I. c #FAF5F8",
"U. c None",
/* pixels */
"U.U.U.U.U.U.U.U.U.U.U.U.U.U.U.U.U.U.U.U.U.U.U.U.U.U.U.U.U.U.U.U.U.U.U.U.U.U.U.U.U.U.U.U.U.U.U.U.",
"U.U.U.U.U.U.U.U.U.U.U.U.U.U.U.U.U.U.U.U.U.U.U.U.U.U.U.U.U.U.U.U.U.U.U.U.U.U.U.U.U.U.U.U.U.U.U.U.",
"U.U.U.U.U.U.U.U.U.U.U.U.U.U.U.U.U.U.U.U.U.U.& * * & U.U.U.U.U.U.U.U.U.U.U.U.U.U.U.U.U.U.U.U.U.U.",
"U.U.U.U.U.U.U.U.U.U.U.U.U.U.U.U.U.U.U.U.U.2 (  . .( 2 U.U.U.U.U.U.U.U.U.U.U.U.U.U.U.U.U.U.U.U.U.",
"U.U.U.U.U.U.U.U.U.U.U.U.U.U.U.U.U.U.U.U.U.5 3.1.1.3.5 U.U.U.U.U.U.U.U.U.U.U.U.U.U.U.U.U.U.U.U.U.",
"U.U.U.U.U.U.U.U.U.U.U.U.U.U.U.U.U.U.U.U.U.%  .<.<. .O U.U.U.U.U.U.U.U.U.U.U.U.U.U.U.U.U.U.U.U.U.",
"U.U.U.U.U.U.U.U.U.U.U.U.U.U.U.U.U.U.U.U.e V 3.,.,...V e U.U.U.U.U.U.U.U.U.U.U.U.U.U.U.U.U.U.U.U.",
"U.U.U.U.U.U.U.U.U.U.U.U.U.U.U.U.U.U.U.X ( $.=.=.=.=.$.( X U.U.U.U.U.U.U.U.U.U.U.U.U.U.U.U.U.U.U.",
"U.U.U.U.U.U.U.U.U.U.U.U.U.U.U.U.U.U.U.X ' <.>.=.=.>.,.' X U.U.U.U.U.U.U.U.U.U.U.U.U.U.U.U.U.U.U.",
"U.U.U.U.U.U.U.U.U.U.U.U.U.U.U.U.U.U.U.X ' =.>.=.=.>.@.' X U.U.U.U.U.U.U.U.U.U.U.U.U.U.U.U.U.U.U.",
"U.U.U.U.U.U.U.U.U.U.U.U.U.U.U.U.U.U.B ` #.=.=.=.=.=.=.#.` B U.U.U.U.U.U.U.U.U.U.U.U.U.U.U.U.U.U.",
"U.U.U.U.U.U.U.U.U.U.U.U.U.U.U.U.U.X ^ &.,.=.=.=.=.=.=.<.=.^ X U.U.U.U.U.U.U.U.U.U.U.U.U.U.U.U.U.",
"U.U.U.U.U.U.U.< % X X X X X X X X X B %.,.&.=.=.=.=.=.,.%.B X X X X X X X X X % < U.U.U.U.U.U.U.",
"U.U.U.U.U.U.U.; r Q / ^ ^ ^ ^ ^ ^ B ) %.>.=.=.@.=.=.=.>.%.~ B ^ ^ ^ ^ ^ ^ / Q r ; U.U.U.U.U.U.U.",
"U.U.U.U.U.U.U.O ! o.o.*.%.%.%.%.$.$.&.&.=.=.=.=.=.=.=.=.@.%.$.$.*.$.$.$.*.o.o.! O U.U.U.U.U.U.U.",
"U.U.U.U.U.U.U.  u.x.w.;.;.2.>.>.>.,.>.=.&.=.=.=.=.&.=.=.=.2.,.2.,.,.2.;.;.w.x.u.  U.U.U.U.U.U.U.",
"U.U.U.U.U.U.U.  c.P.z.O.O.@.&.=.=.=.=.=.=.=.=.=.&.=.&.=.=.=.=.=.&.=.@.O.O.z.P.c.  U.U.U.U.U.U.U.",
"U.U.U.U.U.U.U.. R a.S.C.0.o.>.-.=.=.=.&.=.=.=.=.=.=.=.=.=.=.=.=.-.@.O.0.C.A.a.R . U.U.U.U.U.U.U.",
"U.U.U.U.U.U.U.> y D M.H.j.6.O.O.=.=.=.@.=.=.=.=.=.=.=.=.&.=.=.=.O.O.6.j.K.b.F y > U.U.U.U.U.U.U.",
"U.U.U.U.U.U.U.- s P W p.H.C.O.O.-.-.=.=.=.=.&.=.@.=.=.=.=.@.-.-.O.O.C.H.p.W K s - U.U.U.U.U.U.U.",
"U.U.U.U.U.U.U.- b l i E M.A.l.e.+.+.=.=.=.=.=.=.=.=.=.=.=.=.+.+.e.l.S.M.E i l b - U.U.U.U.U.U.U.",
"U.U.U.U.U.U.U.U.$ 4 l P H a.P.x.O.+.=.=.=.=.=.=.=.=.=.@.=.=.+.O.x.P.a.H P l 4 $ U.U.U.U.U.U.U.U.",
"U.U.U.U.U.U.U.U.U.# b f Z 9.n.d.+.O.&.=.=.=.=.=.=.&.=.=.=.=.+.+.d.n.9.Z g b # U.U.U.U.U.U.U.U.U.",
"U.U.U.U.U.U.U.U.U.U.X 7 v D G [ 2.2.=.=.&.@.=.=.=.=.=.=.&.&.2.2.[ G F v 7 X U.U.U.U.U.U.U.U.U.U.",
"U.U.U.U.U.U.U.U.U.U.U.U.9 d D } 2.=.=.=.=.=.=.=.=.=.=.=.=.=.=.2.} F d 9 U.U.U.U.U.U.U.U.U.U.U.U.",
"U.U.U.U.U.U.U.U.U.U.U.U.X 6 z { 2.=.=.=.=.=.+.+.+.+.=.=.=.=.=.2.{ z 6 X U.U.U.U.U.U.U.U.U.U.U.U.",
"U.U.U.U.U.U.U.U.U.U.U.U.U.U., | >.@.=.=.-.&.O.O.O.O.@.-.=.=.@.2.| * U.U.U.U.U.U.U.U.U.U.U.U.U.U.",
"U.U.U.U.U.U.U.U.U.U.U.U.U.r / 3.>.-.+.+.O.+.g.z.x.g.O.O.+.+.-.>.3./ r U.U.U.U.U.U.U.U.U.U.U.U.U.",
"U.U.U.U.U.U.U.U.U.U.U.U.X ( %.>.=.-.+.+.+.4.D.P.P.Z.4.O.+.+.=.=.>.&.( X U.U.U.U.U.U.U.U.U.U.U.U.",
"U.U.U.U.U.U.U.U.U.U.U.U.X _ 2.:.O.O.q.Z.D.D.m.s.s.m.D.D.Z.q.O.O.:.-._ X U.U.U.U.U.U.U.U.U.U.U.U.",
"U.U.U.U.U.U.U.U.U.U.U.U.< ~ O.0.q.5.j.K.P.I.y.u u y.I.P.K.j.5.q.0.O.~ < U.U.U.U.U.U.U.U.U.U.U.U.",
"U.U.U.U.U.U.U.U.U.U.U.q ] X.O.l.L.L.S.i.t.y.7.F F W y.r.i.S.L.L.z.O.X.] q U.U.U.U.U.U.U.U.U.U.U.",
"U.U.U.U.U.U.U.U.U.U.  Y f.h.g.V.J.I.b.L u S j C C j S p L M.I.J.V.g.h.f.Y   U.U.U.U.U.U.U.U.U.U.",
"U.U.U.U.U.U.U.U.U.U.  T G.P.P.k.W 7.W U K J m 3 3 m K P U W 7.E n.P.P.F.T   U.U.U.U.U.U.U.U.U.U.",
"U.U.U.U.U.U.U.U.U.U.  t v.B.N.r.a A G k N N 9 X X 9 N N k G A A t.N.B.v.t   U.U.U.U.U.U.U.U.U.U.",
"U.U.U.U.U.U.U.U.U.U.o 9 x K H J L K l 1 - : U.U.U.U.: = 1 z P J J H K x 8 o U.U.U.U.U.U.U.U.U.U.",
"U.U.U.U.U.U.U.U.U.U.+ 0 h I H g n M b U.U.U.U.U.U.U.U.U.U.b M n f F I h 0 + U.U.U.U.U.U.U.U.U.U.",
"U.U.U.U.U.U.U.U.U.U.o 8 l L L n X + # U.U.U.U.U.U.U.U.U.U.# + X n L L z 8 + U.U.U.U.U.U.U.U.U.U.",
"U.U.U.U.U.U.U.U.U.U.: 4 9 b 9 7 U.U.U.U.U.U.U.U.U.U.U.U.U.U.U.U.7 w w 9 4 : U.U.U.U.U.U.U.U.U.U.",
"U.U.U.U.U.U.U.U.U.U.U.: @ o o U.U.U.U.U.U.U.U.U.U.U.U.U.U.U.U.U.U.o o @ : U.U.U.U.U.U.U.U.U.U.U.",
"U.U.U.U.U.U.U.U.U.U.U.U.U.U.U.U.U.U.U.U.U.U.U.U.U.U.U.U.U.U.U.U.U.U.U.U.U.U.U.U.U.U.U.U.U.U.U.U.",
"U.U.U.U.U.U.U.U.U.U.U.U.U.U.U.U.U.U.U.U.U.U.U.U.U.U.U.U.U.U.U.U.U.U.U.U.U.U.U.U.U.U.U.U.U.U.U.U.",
"U.U.U.U.U.U.U.U.U.U.U.U.U.U.U.U.U.U.U.U.U.U.U.U.U.U.U.U.U.U.U.U.U.U.U.U.U.U.U.U.U.U.U.U.U.U.U.U.",
"U.U.U.U.U.U.U.U.U.U.U.U.U.U.U.U.U.U.U.U.U.U.U.U.U.U.U.U.U.U.U.U.U.U.U.U.U.U.U.U.U.U.U.U.U.U.U.U.",
"U.U.U.U.U.U.U.U.U.U.U.U.U.U.U.U.U.U.U.U.U.U.U.U.U.U.U.U.U.U.U.U.U.U.U.U.U.U.U.U.U.U.U.U.U.U.U.U."
};
