/* XPM */
static char *result[] = {
/* columns rows colors chars-per-pixel */
"32 20 6 1 ",
"  c black",
". c #2F2300",
"X c #F68080",
"o c #CDCDCD",
"O c gray92",
"+ c None",
/* pixels */

"++++++++++++++++++++++++++++++++",
"++++++++++++++++++++++++++++++++",
"++++++++++++++++++++++++++++++++",
"++++++++++++++++++++++++++++++++",
"+++++++++++++++  ++++ ++++++++++",
"++++++++++++++ XO    o +++++++++",
"++++++++++++++ XOOOOOo +++++++++",
"++++++++ +++++ OOOOOOO +++++++++",
"+++++++ o ++++ OO.OO.O +++++++++",
"++++++++ o ++  OOOOXOO +++++++++",
"+++++++++ o  OOoOOOOO ++++++++++",
"++++++++++ OOOOOoOOO +++++++++++",
"+++++++++++ OOOOOOOO +++++++++++",
"+++++++++++ OO OOO O +++++++++++",
"++++++++++++ O  OO O +++++++++++",
"++++++++++++++++++++++++++++++++",
"++++++++++++++++++++++++++++++++",
"++++++++++++++++++++++++++++++++",
"++++++++++++++++++++++++++++++++",
"++++++++++++++++++++++++++++++++"
};
